<?xml version="1.0" encoding="utf-8"?>
<!-- Generator: Adobe Illustrator 27.5.0, SVG Export Plug-In . SVG Version: 6.00 Build 0)  -->
<svg version="1.1" xmlns="http://www.w3.org/2000/svg" xmlns:xlink="http://www.w3.org/1999/xlink" x="0px" y="0px"
	 viewBox="0 0 2200 2200" style="enable-background:new 0 0 2200 2200;" xml:space="preserve">
<g id="background">
	<rect style="fill:#FFFFFF;" width="2200" height="2200"/>
</g>
<g id="Objects">
	<g>
		<g>
			<path style="fill:#D6D6D6;" d="M885.182,1318.724L604.13,1599.776c-88.438,88.438-179.538,145.49-239.572,177.469
				c-23.308,12.414-48.578-12.917-36.133-36.194c32.177-60.14,89.427-151.438,177.484-239.496l281.052-281.052L885.182,1318.724z"/>
			<path style="fill:#B7BEC4;" d="M820.966,1382.942l-216.833,216.833c-88.441,88.441-179.539,145.486-239.572,177.471
				c-23.307,12.416-48.582-12.921-36.136-36.197c3.768-7.047,7.881-14.514,12.354-22.357c-2.076,16.843,16.146,31.525,33.141,22.48
				c50.704-27.006,127.656-75.206,202.356-149.906l182.167-182.167c-52.111-51.477-76.419-83.658-76.419-83.658l40.72-40.72
				L820.966,1382.942z"/>
			<path style="fill:#E53C3C;" d="M1350.002,1199.1c72.238,132.533,88.891,250.11,31.73,307.271l-73.331,73.331
				c-92.34,92.34-342.348-7.949-558.408-224.01s-316.35-466.068-224.01-558.408l73.331-73.331
				c56.599-56.599,172.424-40.827,303.351,29.61L1350.002,1199.1z"/>
			<path style="fill:#C43939;" d="M1381.732,1506.371l-73.329,73.329c-92.339,92.339-342.351-7.95-558.409-224.009
				c-184.755-184.755-284.853-394.334-252.248-508.923c-10.079,111.028,81.892,289.686,240.897,448.691
				c202.103,202.103,435.954,295.913,522.327,209.54l68.596-68.596c53.408-53.408,37.928-163.187-29.434-286.983l49.877,49.677
				C1422.234,1331.634,1438.893,1449.21,1381.732,1506.371z"/>
			<path style="fill:#C43939;" d="M1665.255,834.113c0,0-255.983,305.716-347.18,396.914
				c-22.436,22.437-54.042,33.185-85.491,28.973c-49.976-6.693-129.366-39.598-239.844-150.075
				c-111.43-111.43-143.943-191.234-150.242-241.129c-3.917-31.024,7.021-62.086,29.133-84.198
				c108.055-108.055,398.388-348.741,398.388-348.741L1665.255,834.113z"/>
			<path style="fill:#A83131;" d="M1318.077,1231.03c-22.434,22.434-54.043,33.18-85.492,28.967
				c-49.976-6.687-129.364-39.598-239.84-150.074C881.311,998.49,848.798,918.688,842.502,868.796
				c-1.011-8.027-1.034-16.061-0.115-23.935c41.965,102.963,139.489,205.665,220.6,269.297
				c75.535,59.252,184.089,49.394,247.767-22.449c50.091-56.525,154.34-174.821,199.331-230.488
				c-48.559-30.177-273.74-210.934-305.908-372.252c39.361-32.069,65.839-53.109,65.839-53.109l395.238,398.255
				C1665.253,834.115,1409.275,1139.832,1318.077,1231.03z"/>
			<path style="fill:#E53C3C;" d="M1223.537,295.622c-69.223,69.223,5.959,256.638,167.924,418.602s349.38,237.147,418.602,167.924
				l54.968-54.968c69.223-69.223-5.959-256.638-167.924-418.602s-349.38-237.147-418.602-167.924L1223.537,295.622z"/>
			<path style="fill:#C43939;" d="M1865.036,827.176l-54.97,54.97c-69.224,69.224-256.644-5.959-418.606-167.92
				c-134.388-134.388-209.027-286.308-190.99-373.677c11.129,73.674,51.209,140.608,96.429,200.273
				c93.232,123.015,241.063,248.755,370.413,302.701c40.045,16.701,86.251,7.215,116.674-23.719
				c17.006-17.292,30.092-29.975,48.623-53.578c0,0,64.371-136.713-240.846-448.608c35.347,26.034,70.917,56.533,105.345,90.961
				C1859.069,570.539,1934.252,757.96,1865.036,827.176z"/>
			<g>
				<path style="fill:#FFFFFF;" d="M1519.89,323.673c4.136-4.136,2.83-11.668-2.703-15.723
					c-34.813-25.512-75.697-41.731-115.758-44.902c-44.121-3.492-86.896,9.084-117.517,35.671
					c-11.346,9.851-21.339,26.174-12.333,41.168c8.315,13.843,28.108,16.379,40.631,10.004c12.523-6.375,20.205-18.72,29.551-28.965
					c37.496-41.106,110.559-30.918,166.094,3.436C1512.006,326.93,1516.929,326.634,1519.89,323.673L1519.89,323.673z"/>
			</g>
			<g>
				<path style="fill:#FFFFFF;" d="M841.572,780.309c2.952-4.82,1.45-11.118-3.352-14.099
					c-31.01-19.248-65.662-31.373-99.718-34.069c-44.121-3.492-86.896,9.084-117.517,35.671
					c-11.346,9.851-21.339,26.174-12.333,41.168c8.315,13.843,28.108,16.379,40.631,10.004c12.523-6.375,20.205-18.72,29.551-28.965
					c33.839-37.097,96.646-32.417,149.393-5.901C832.988,786.511,838.788,784.854,841.572,780.309L841.572,780.309z"/>
			</g>
			<g>
				<path style="fill:#FFFFFF;" d="M1160.437,583.129c6.531,2.657,8.095,11.196,2.928,15.995
					c-71.892,66.773-143.785,133.547-215.677,200.333c-6.353,5.897-15.476,12.166-22.872,7.637
					c-5.337-3.265-6.418-10.954-4.086-16.753c2.326-5.806,7.181-10.152,11.879-14.277
					c72.537-63.777,145.081-127.549,217.631-191.326c2.744-2.412,6.615-3.065,9.999-1.689
					C1160.305,583.075,1160.371,583.102,1160.437,583.129z"/>
			</g>
			<g>
				<path style="fill:#FFFFFF;" d="M505.735,1534.242c49.04-50.169,98.082-100.337,147.129-150.508
					c2.554-2.613,6.366-3.558,9.844-2.441l0.203,0.065c6.713,2.156,8.917,10.553,4.128,15.728
					c-47.673,51.514-95.346,103.027-143.019,154.546c-4.746,5.128-12.756,5.424-17.866,0.659l0,0
					C500.971,1547.459,500.782,1539.309,505.735,1534.242z"/>
			</g>
		</g>
		<ellipse style="fill:#DDE3E8;" cx="1065.533" cy="1950.412" rx="756.309" ry="34.678"/>
	</g>
</g>
</svg>
